<svg xmlns="http://www.w3.org/2000/svg" fill="none" viewBox="0 0 24 24"><path fill="#c7d0e1" fill-rule="evenodd" d="M13 13.2293L22.5734 19.9308L21.4265 21.5692L12 14.9707L2.57344 21.5692L1.42651 19.9308L11 13.2293V1.75H13V13.2293Z" clip-rule="evenodd"></path><path fill="#73e34d" fill-rule="evenodd" d="M12 1.25C10.067 1.25 8.5 2.817 8.5 4.75C8.5 6.683 10.067 8.25 12 8.25C13.933 8.25 15.5 6.683 15.5 4.75C15.5 2.817 13.933 1.25 12 1.25ZM4.5 15.75C2.567 15.75 1 17.317 1 19.25C1 21.183 2.567 22.75 4.5 22.75C6.433 22.75 8 21.183 8 19.25C8 17.317 6.433 15.75 4.5 15.75ZM19.5 15.75C17.567 15.75 16 17.317 16 19.25C16 21.183 17.567 22.75 19.5 22.75C21.433 22.75 23 21.183 23 19.25C23 17.317 21.433 15.75 19.5 15.75Z" clip-rule="evenodd"></path></svg>