<svg xmlns="http://www.w3.org/2000/svg" fill="none" viewBox="0 0 14 14"><path fill="#d7e0ff" d="M11.223 5.71a.237.237 0 0 1-.167-.19 3.623 3.623 0 0 0-1.037-2.213 3.787 3.787 0 0 0-4.65-.553 3.667 3.667 0 0 0-1.547 1.907.216.216 0 0 1-.202.12c-.403.027-.797.13-1.159.306a3.07 3.07 0 0 0-.95.718 2.979 2.979 0 0 0-.754 2.187c.055.798.43 1.542 1.045 2.068 2.309 1.98 8.245 2.131 10.576.078a2.541 2.541 0 0 0 .393-3.403 2.633 2.633 0 0 0-1.548-1.025Z"></path><path stroke="#4147d5" d="M11.223 5.71a.237.237 0 0 1-.167-.19 3.623 3.623 0 0 0-1.037-2.213 3.787 3.787 0 0 0-4.65-.553 3.667 3.667 0 0 0-1.547 1.907.216.216 0 0 1-.202.12c-.403.027-.797.13-1.159.306a3.07 3.07 0 0 0-.95.718 2.979 2.979 0 0 0-.754 2.187c.055.798.43 1.542 1.045 2.068 2.309 1.98 8.245 2.131 10.576.078a2.541 2.541 0 0 0 .393-3.403 2.633 2.633 0 0 0-1.548-1.025Z"></path><path stroke="#4147d5" stroke-linecap="round" d="M3.477 4.784c1.189 0 2.252.784 2.588 1.5"></path></svg>