<svg xmlns="http://www.w3.org/2000/svg" viewBox="0 0 2500 2500" version="1.1">
	<path d="M 1215 73.600 C 1107.410 78.686, 1024.657 93.648, 930.856 124.972 C 629.879 225.482, 392.847 463.823, 293.847 765.500 C 265.124 853.023, 249.330 940.354, 245.016 1035.500 C 243.625 1066.191, 243.660 1596.309, 245.054 1604.901 C 249.788 1634.076, 272.959 1659.695, 301.647 1667.470 C 310.829 1669.959, 327.046 1670.525, 336.679 1668.692 C 352.949 1665.598, 364.474 1659.408, 377.069 1647 C 391.420 1632.863, 398.226 1618.490, 400.029 1598.515 C 400.526 1593.007, 400.948 1513.025, 400.966 1420.777 L 401 1253.053 420.250 1233.392 C 507.072 1144.712, 615.434 1071.223, 741.500 1015.527 C 768.387 1003.648, 766.765 1004.107, 767.415 1008.200 C 767.891 1011.199, 784.795 1202.913, 785.289 1210.916 C 785.496 1214.268, 785.397 1214.358, 780 1215.703 C 751.833 1222.720, 712.856 1236.511, 683.036 1250.010 C 623.030 1277.175, 573.050 1309.956, 521.780 1355.777 C 500.006 1375.237, 491.960 1388.597, 488.940 1410.309 C 485.960 1431.735, 491.947 1452.900, 505.882 1470.203 C 515.905 1482.647, 530.677 1492.446, 545.500 1496.484 C 555.021 1499.078, 572.034 1499.580, 581.999 1497.560 C 598.872 1494.141, 607.254 1489.203, 629.155 1469.777 C 654.322 1447.454, 680.754 1428.279, 707.500 1412.942 C 721.740 1404.776, 749.135 1391.576, 765 1385.236 C 779.182 1379.569, 798.993 1372.660, 799.528 1373.195 C 799.829 1373.496, 819.462 1592.732, 820.238 1604.455 C 820.486 1608.204, 820.318 1608.459, 817 1609.362 C 796.454 1614.954, 754.384 1630.443, 731.036 1641.011 C 668.532 1669.304, 605.775 1711.470, 562.885 1753.993 C 551.400 1765.380, 549.855 1767.351, 545.636 1776 C 539.059 1789.483, 537.591 1795.933, 537.555 1811.500 C 537.521 1826.216, 538.931 1833.006, 544.446 1844.683 C 548.842 1853.992, 554.029 1860.918, 562.772 1869.156 C 587.922 1892.848, 627.827 1896.505, 656.674 1877.760 C 660.428 1875.320, 668.466 1868.864, 674.536 1863.412 C 714.972 1827.094, 754.084 1801.646, 800.436 1781.497 C 812.272 1776.352, 834.200 1767.866, 834.607 1768.274 C 834.745 1768.412, 835.580 1776.619, 836.463 1786.513 C 841.088 1838.368, 843.939 1860.789, 849.113 1886 C 859.520 1936.709, 877.223 1979.945, 902.342 2016 C 909.711 2026.577, 913.552 2031.640, 917.159 2035.532 L 919.969 2038.564 914.560 2046.643 C 882.693 2094.241, 856.632 2154.729, 843.101 2212.500 C 833.827 2252.094, 830.035 2285.900, 830.013 2329.162 C 829.996 2364.432, 831.845 2374.174, 841.438 2389.352 C 852.526 2406.896, 869.451 2419.473, 889 2424.694 C 897.918 2427.076, 917.909 2427.020, 927.500 2424.586 C 948.693 2419.209, 967.529 2404.066, 977.875 2384.089 C 984.988 2370.353, 985.210 2368.991, 986.027 2334 C 987.392 2275.520, 993.858 2241.922, 1012.954 2194.094 C 1020.447 2175.325, 1039.741 2139.118, 1047.279 2129.679 L 1049.500 2126.898 1056.450 2129.516 C 1081.570 2138.978, 1123.475 2148.444, 1160 2152.909 C 1193.259 2156.974, 1203.576 2157.500, 1250 2157.500 C 1296.424 2157.500, 1306.741 2156.974, 1340 2152.909 C 1376.525 2148.444, 1418.430 2138.978, 1443.550 2129.516 L 1450.500 2126.898 1452.532 2129.442 C 1456.229 2134.071, 1469.732 2157.302, 1475.851 2169.561 C 1490.717 2199.342, 1501.997 2232.737, 1507.920 2264.500 C 1511.709 2284.823, 1513.140 2301.241, 1513.933 2333.500 C 1514.807 2369.028, 1515.026 2370.381, 1522.125 2384.089 C 1532.471 2404.066, 1551.307 2419.209, 1572.500 2424.586 C 1582.091 2427.020, 1602.082 2427.076, 1611 2424.694 C 1630.549 2419.473, 1647.474 2406.896, 1658.562 2389.352 C 1668.093 2374.272, 1669.920 2364.598, 1669.960 2329 C 1670.008 2286.387, 1666.155 2252.018, 1656.899 2212.500 C 1643.248 2154.217, 1617.160 2093.914, 1584.599 2045.377 L 1580.029 2038.565 1582.856 2035.533 C 1591.862 2025.871, 1608.806 2000.029, 1617.977 1981.966 C 1637.412 1943.691, 1649.133 1904.618, 1656.363 1854 C 1658.805 1836.901, 1660.283 1822.999, 1663.537 1786.513 C 1664.420 1776.619, 1665.255 1768.412, 1665.393 1768.274 C 1665.840 1767.827, 1689.113 1776.906, 1700.968 1782.153 C 1748.023 1802.979, 1785.187 1827.237, 1825.464 1863.412 C 1831.534 1868.864, 1839.572 1875.320, 1843.326 1877.760 C 1860.462 1888.894, 1882.020 1892.351, 1903.730 1887.446 C 1925.042 1882.630, 1945.673 1865.606, 1955.554 1844.683 C 1960.992 1833.168, 1962.428 1826.239, 1962.428 1811.500 C 1962.428 1795.864, 1960.958 1789.429, 1954.319 1776 C 1950.122 1767.512, 1948.337 1765.218, 1937.561 1754.462 C 1895.258 1712.241, 1831.416 1669.280, 1768.974 1641.016 C 1745.616 1630.443, 1703.551 1614.955, 1683 1609.362 C 1679.681 1608.459, 1679.514 1608.205, 1679.767 1604.455 C 1680.615 1591.884, 1700.157 1373.510, 1700.461 1373.206 C 1701.004 1372.663, 1720.666 1379.509, 1735 1385.231 C 1752.983 1392.410, 1785.277 1408.458, 1801.251 1418.154 C 1827.108 1433.847, 1852.211 1452.634, 1874.500 1472.972 C 1896.901 1493.412, 1912.923 1499.958, 1937.448 1498.690 C 1955.035 1497.781, 1967.669 1493.248, 1981.207 1482.988 C 1993.743 1473.488, 2005.577 1455.767, 2009.423 1440.736 C 2014.089 1422.499, 2011.187 1398.232, 2002.583 1383.551 C 1994.163 1369.184, 1971.153 1347.419, 1936.532 1321.075 C 1873.183 1272.872, 1792.609 1233.665, 1720 1215.713 L 1714.500 1214.353 1714.852 1208.927 C 1715.883 1193.043, 1732.798 1005.869, 1733.243 1005.424 C 1734.848 1003.819, 1796.584 1032.265, 1830.263 1050.129 C 1928.178 1102.064, 2010.867 1162.840, 2080.250 1233.871 L 2099 1253.066 2099.034 1420.783 C 2099.052 1513.027, 2099.474 1593.007, 2099.971 1598.515 C 2101.774 1618.490, 2108.580 1632.863, 2122.931 1647 C 2135.526 1659.408, 2147.051 1665.598, 2163.321 1668.692 C 2172.954 1670.525, 2189.171 1669.959, 2198.353 1667.470 C 2227.041 1659.695, 2250.212 1634.076, 2254.946 1604.901 C 2256.340 1596.309, 2256.375 1066.191, 2254.984 1035.500 C 2250.021 926.042, 2229.353 824.333, 2191.991 725.500 C 2147.445 607.665, 2084.601 503.847, 2000.404 409 C 1983.751 390.240, 1940.563 346.947, 1922 330.406 C 1830.371 248.754, 1732.220 188.019, 1619.767 143.387 C 1521.711 104.469, 1423.066 82.504, 1312.500 74.971 C 1297.163 73.926, 1228.521 72.961, 1215 73.600 M 1206 230.619 C 1169.617 233.033, 1134.936 236.795, 1109.500 241.087 C 967.909 264.982, 834.583 324.225, 723 412.827 C 674.905 451.017, 627.891 497.543, 588.937 545.500 C 495.712 660.271, 433.281 801.214, 410.534 948.256 C 406.180 976.401, 404.397 993.944, 401.693 1035.250 C 401.558 1037.313, 401.576 1039, 401.733 1039 C 401.891 1039, 405.278 1036.376, 409.260 1033.168 C 449.119 1001.064, 507.826 961.638, 561 931.264 C 714.348 843.671, 890.373 787.293, 1075.377 766.516 C 1138.949 759.377, 1175.268 757.502, 1250 757.502 C 1324.732 757.502, 1361.051 759.377, 1424.623 766.516 C 1609.744 787.306, 1784.879 843.405, 1939 931.282 C 1991.812 961.394, 2050.831 1001.023, 2090.740 1033.168 C 2094.722 1036.376, 2098.097 1039, 2098.240 1039.001 C 2098.627 1039.002, 2098.138 1030.774, 2096.429 1008.500 C 2082.600 828.330, 2006.885 651.358, 1885.517 515.527 C 1785.604 403.707, 1664.092 322.829, 1524 274.901 C 1458.123 252.363, 1394.201 239.017, 1320.500 232.411 C 1303.605 230.897, 1221.243 229.608, 1206 230.619 M 1224.500 392.113 C 1164.907 397.690, 1105.713 414.932, 1051.500 442.505 C 1016.695 460.208, 984.906 481.415, 955.924 506.266 C 943.663 516.780, 935.733 528.627, 931.003 543.500 C 927.827 553.489, 927.096 572.821, 929.486 583.625 C 935.939 612.786, 960.231 636.854, 989.500 643.083 C 992.800 643.785, 1000.450 644.340, 1006.500 644.315 C 1027.865 644.229, 1039.760 639.342, 1062 621.513 C 1069.975 615.119, 1081 606.823, 1086.500 603.077 C 1130.359 573.205, 1181.780 554.339, 1235.250 548.504 C 1248.808 547.024, 1251.192 547.024, 1264.750 548.504 C 1318.220 554.339, 1369.641 573.205, 1413.500 603.077 C 1419 606.823, 1430.025 615.119, 1438 621.513 C 1460.669 639.686, 1472.236 644.341, 1494.500 644.252 C 1508.922 644.194, 1518.348 642.001, 1529.814 636.036 C 1550.113 625.475, 1565.851 605.224, 1570.545 583.625 C 1572.900 572.787, 1572.153 553.425, 1568.997 543.500 C 1564.267 528.627, 1556.337 516.780, 1544.076 506.266 C 1485.954 456.427, 1414.383 420.049, 1341 403.044 C 1296.299 392.686, 1257.387 389.035, 1224.500 392.113 M 1213 913.597 C 1124.996 916.752, 1054.422 924.689, 981.500 939.633 C 955.582 944.944, 921.846 952.902, 920.681 953.980 C 920.230 954.397, 924.618 1008.289, 930.431 1073.739 C 936.244 1139.190, 941 1193.473, 941 1194.370 C 941 1195.873, 965.047 1196, 1250 1196 C 1536.776 1196, 1559 1195.881, 1559 1194.346 C 1559 1193.437, 1563.755 1139.152, 1569.567 1073.713 C 1575.379 1008.275, 1579.767 954.394, 1579.317 953.979 C 1578.154 952.902, 1544.398 944.940, 1518.500 939.633 C 1456.510 926.930, 1390.764 918.703, 1321.500 914.982 C 1302.450 913.959, 1229.044 913.022, 1213 913.597 M 955.555 1357.250 C 955.840 1359.588, 960.320 1409.875, 965.511 1469 C 970.702 1528.125, 975.218 1578.862, 975.547 1581.750 L 976.144 1587 1250 1587 L 1523.856 1587 1524.452 1581.750 C 1524.780 1578.862, 1529.294 1528.125, 1534.484 1469 C 1539.674 1409.875, 1544.155 1359.588, 1544.441 1357.250 L 1544.962 1353 1250 1353 L 955.038 1353 955.555 1357.250 M 990 1744.143 C 990 1750.514, 996.625 1818.400, 998.503 1831.267 C 1004.617 1873.168, 1014.869 1903.369, 1030.948 1926.845 C 1054.377 1961.053, 1099.091 1984.734, 1159.522 1994.939 C 1213.284 2004.019, 1288.038 2004.003, 1340.500 1994.900 C 1411.807 1982.528, 1456.477 1955.033, 1479.247 1909.500 C 1491.265 1885.470, 1498.835 1856.238, 1503.463 1816 C 1504.840 1804.032, 1509.990 1747.475, 1509.997 1744.250 C 1509.999 1743.253, 1457.335 1743, 1250 1743 C 1055.684 1743, 990 1743.289, 990 1744.143" stroke="none" fill="#cdc34e" fill-rule="evenodd"></path>
</svg>