<svg xmlns="http://www.w3.org/2000/svg" viewBox="0 0 24 24"><g><path d="M12.34 6.68a5.56 5.56 0 0 1-.82.25c-.48.11-1 .2-1.42.32a4 4 0 0 1-.41.16c0-.07-.24-1.41-.24-1.41a.31.31 0 0 0-.31-.31.32.32 0 0 0-.31.31l0 1.28 0 .38A1 1 0 0 0 9 8a.73.73 0 0 0 .52.24 3.26 3.26 0 0 0 .74 0c.55-.08 1.12-.1 1.67-.19a4.94 4.94 0 0 0 .78-.19 2.15 2.15 0 0 0 1.25-1 3.18 3.18 0 0 0 .07-2.18 5.56 5.56 0 0 0-.27-.94.79.79 0 0 0-.48-.44 1.1 1.1 0 0 0-.47 0 6.62 6.62 0 0 0-.89.4c-.3.13-.57.27-.85.42s-.81.46-1.2.7a.36.36 0 0 0-.14.48.35.35 0 0 0 .48.13c.34-.16.67-.33 1-.48s1.5-.44 1.71-.52A7 7 0 0 1 13 6a1 1 0 0 1-.66.68Z" fill="#d1d1e0"></path><path d="M3.83 6.75a1.94 1.94 0 0 0-.2.33.87.87 0 0 0-.08.26 2.94 2.94 0 0 0-.15.75c0 .28.1.41.24.41l.15 0c.06 0 .73-.68.82-.81a2.12 2.12 0 0 0 .27-.49 3.27 3.27 0 0 0 .23-.9.36.36 0 0 0-.22-.44c-.13-.04-.26-.14-1.06.89Z" fill="#d1d1e0"></path><path d="M18.63 17.27a7.36 7.36 0 0 0 1-.56 2.77 2.77 0 0 0 .65-.57 11.44 11.44 0 0 0 1-1.43 3.76 3.76 0 0 0 .43-1.16c.06-.37.15-2.56.17-3.46v-.37a.48.48 0 0 0 0-.15.32.32 0 0 0-.36-.22.38.38 0 0 0-.26.16.34.34 0 0 0 0 .24c-.06 0 0 .16 0 .32 0 .87-.19 3-.25 3.35a3 3 0 0 1-.37.88 10.61 10.61 0 0 1-.93 1.28 1.68 1.68 0 0 1-.45.37 5.91 5.91 0 0 1-.91.45 6.6 6.6 0 0 1-2.44.44c-1.36 0-2.77-.15-4-.14s-2.52.16-3.78.19l-1.56 0a10.15 10.15 0 0 1-2.13-.35 2.85 2.85 0 0 1-1.11-.57.9.9 0 0 1-.26-.8.55.55 0 0 1 .45-.52 15 15 0 0 1 2.11-.19c1.73 0 3.44.14 5.17 0a1.83 1.83 0 0 0 1.13-.46 3.23 3.23 0 0 0 .52-1.13l.27-.82c0-.09.53-1.47.51-1.5.18-.11.37-.26.58-.38a.55.55 0 0 1 .27-.12h.33c.33 0 .66.11 1 .12l2.27 0 1.52 0 1.6-.05a.31.31 0 0 0 0-.62h-1.66l-1.48 0c-.75 0-1.5-.06-2.24-.11-.3 0-.62-.11-.93-.14a2.79 2.79 0 0 0-.5 0 1.68 1.68 0 0 0-.47.14c-.25.12-.49.31-.72.44a12.45 12.45 0 0 1-1.25.68 4.6 4.6 0 0 1-.83.32 9.65 9.65 0 0 1-2.6.32 29.24 29.24 0 0 1-4.06-.34 6 6 0 0 1-2.37-.56 1.1 1.1 0 0 1-.52-1 4.4 4.4 0 0 1 .06-.73c.08-.4.19-.78.3-1.17a12.48 12.48 0 0 1 .55-1.7 3.49 3.49 0 0 1 .57-.88 3.4 3.4 0 0 1 1-.7 10.27 10.27 0 0 1 2-.65L11.9 2a28.29 28.29 0 0 1 3.33-.65 11.69 11.69 0 0 1 2.22 0 8.52 8.52 0 0 1 1.43.21 3.28 3.28 0 0 1 .82.33 2.84 2.84 0 0 1 1 1.58 14 14 0 0 1 .46 3.22s0 1.89 0 1.91a.35.35 0 0 0 .35.34.42.42 0 0 0 .36-.38V6.62a15 15 0 0 0-.43-3.41 3.6 3.6 0 0 0-1.35-2.08 3.83 3.83 0 0 0-.98-.45A9.22 9.22 0 0 0 17.53.4a12 12 0 0 0-2.39 0 26.51 26.51 0 0 0-3.47.6L5.41 2.25A11.17 11.17 0 0 0 3.19 3 4.67 4.67 0 0 0 1.8 4 4.49 4.49 0 0 0 1 5.11 14.6 14.6 0 0 0 .39 7c-.11.4-.23.83-.31 1.26A6 6 0 0 0 0 9.2a2.18 2.18 0 0 0 1.09 2 7.18 7.18 0 0 0 2.85.68 31.53 31.53 0 0 0 4.19.23 10.55 10.55 0 0 0 2.87-.44 5.73 5.73 0 0 0 1-.4l.47-.26c-.14.35-.3.74-.31.79l-.3.8a2.22 2.22 0 0 1-.41.85c-.15.15-.37.17-.79.19-1.7.08-3.4-.16-5.11-.19a16 16 0 0 0-2.28.12A1.6 1.6 0 0 0 1.83 15a2.11 2.11 0 0 0 .58 1.82 4.14 4.14 0 0 0 1.59.81 10.57 10.57 0 0 0 2.38.4 15.83 15.83 0 0 0 1.68 0c1.26 0 2.51-.2 3.78-.23 1.47 0 3.17.16 4.73 0a7 7 0 0 0 2.06-.53Z" fill="#d1d1e0"></path><path d="M2.23 19.69a4.77 4.77 0 0 0-1.11 1.13c-.19.27-.32.58-.48.84l-.26.83a2.5 2.5 0 0 0-.13.51c0 .2.08.3.16.33a.27.27 0 0 0 .34 0 6 6 0 0 0 .86-1.09 4.68 4.68 0 0 0 .39-.63 9 9 0 0 1 .72-1.42.37.37 0 0 0 0-.5.36.36 0 0 0-.49 0Z" fill="#c723dd"></path><path d="M13.61 21.16a3.15 3.15 0 0 1-1.68.56 2.59 2.59 0 0 1-1.58-.47c-.61-.39-1.07-.92-1.67-1.22a2.66 2.66 0 0 0-1.62-.29 3.15 3.15 0 0 0-1.11.4 5 5 0 0 0-1.23 1.06c-.18.21-.6.7-.6.88a.33.33 0 0 0 .32.4c.24 0 .74-.71.8-.76a4.76 4.76 0 0 1 .94-.65 2.42 2.42 0 0 1 1-.26 1.75 1.75 0 0 1 1 .25c.56.31 1 .78 1.62 1.14a3.54 3.54 0 0 0 2.27.43 4.13 4.13 0 0 0 2-.91.35.35 0 1 0-.42-.56Z" fill="#c723dd"></path><path d="M23.1 18.05a8.09 8.09 0 0 0 .9-4.12.35.35 0 0 0-.7 0 7.57 7.57 0 0 1-1.14 3.58A9.63 9.63 0 0 1 21 19a10 10 0 0 1-1.4 1.27 7.94 7.94 0 0 1-1 .66c-.36.2-.74.37-1.13.54l-.78.29-.4.07a.34.34 0 0 0-.25.26.29.29 0 0 0 .21.35 5.93 5.93 0 0 0 1.47-.25 11.48 11.48 0 0 0 1.53-.52 7 7 0 0 0 1-.51 9.36 9.36 0 0 0 1.64-1.35 7.84 7.84 0 0 0 1.21-1.76Z" fill="#c723dd"></path><path d="M23.75 20.77a.35.35 0 0 0-.44.22 4.89 4.89 0 0 1-.69.76q-.16.16-.3.33c-.08.1-.14.22-.21.32-1.11 1.6-.11 1.25 0 1.19s.67-.4.74-.44a3.49 3.49 0 0 0 .42-.36 2.43 2.43 0 0 0 .33-.46 3.46 3.46 0 0 0 .4-1.11.37.37 0 0 0-.25-.45Z" fill="#c723dd"></path></g></svg>