<svg xmlns="http://www.w3.org/2000/svg" viewBox="0 0 24 24"><title>museum-exhibition-fossil</title><g><path d="M4.5 10.33a10.84 10.84 0 0 1 1.76.91c.43.4.64 1 1 1.37a2 2 0 0 0 .79.49 3.87 3.87 0 0 0 1.36.18 24.61 24.61 0 0 0 2.89-.35 11.61 11.61 0 0 0 2.7-.55 2.91 2.91 0 0 0 1.59-1.31 2.8 2.8 0 0 0 .16-1.55 6.07 6.07 0 0 0-.61-2 .57.57 0 0 0-.53-.32.61.61 0 0 0-.43.15c-.12.1-.28.43-.41.55a5.27 5.27 0 0 1-.51.43 2.15 2.15 0 0 1-.49.28c-.19.08-.28-.06-.4-.14a2.16 2.16 0 0 0-.53-.25 1.69 1.69 0 0 0-.52-.06 3.08 3.08 0 0 0-1.13.47c-.25.15-.64.34-.86.44a6.41 6.41 0 0 1-.05-.94 2.4 2.4 0 0 1 .07-.7l.7-.07a1.51 1.51 0 0 0 .6-.16.75.75 0 0 0 .35-.61 6.67 6.67 0 0 0-.08-.75.5.5 0 0 1 0-.17c.44.14 1.06.37 1.38.44a.64.64 0 0 0 .84-.53 8 8 0 0 0 .24-1.44 2.74 2.74 0 0 0 .76.28.76.76 0 0 0 .81-.29 1.67 1.67 0 0 0 0-1.26 8.57 8.57 0 0 0-.93-2 2 2 0 0 0-2.21-.79 8.45 8.45 0 0 0-2.68 1.65 3.23 3.23 0 0 1-1 .08l-1.18 0A2.37 2.37 0 0 0 5.72 3a3.33 3.33 0 0 0-.56 2 5.49 5.49 0 0 0-1.81 2.6A2.5 2.5 0 0 0 4 9.93a2 2 0 0 0 .5.4Zm-.44-2.58c.29-1.42 1.72-2.27 1.74-2.43.4-.4-.61-.49.45-2a1.72 1.72 0 0 1 1.62-.82 15 15 0 0 0 1.78 0 2.09 2.09 0 0 0 .93-.19A7.78 7.78 0 0 1 13 .89a1.18 1.18 0 0 1 1.31.52 5.76 5.76 0 0 1 .56 1.2c.07.19.19.46.25.67-.18-.08-.49-.11-.66-.19a1.56 1.56 0 0 0-.66-.18.72.72 0 0 0-.58.49 6 6 0 0 0-.17 1.53c-.4-.14-.9-.33-1.17-.4a.85.85 0 0 0-.51 0 .88.88 0 0 0-.57.64 3.14 3.14 0 0 0-.12 1.11 5.61 5.61 0 0 0-.72.08.88.88 0 0 0-.4.22 1.85 1.85 0 0 0-.38 1 7.38 7.38 0 0 0 0 1.87.87.87 0 0 0 1 .84 3.4 3.4 0 0 0 1.36-.55 2.89 2.89 0 0 1 .81-.44.8.8 0 0 1 .47.18 2.13 2.13 0 0 0 .45.23 1.19 1.19 0 0 0 .9 0 2.63 2.63 0 0 0 .61-.34 6 6 0 0 0 .67-.56 4.29 4.29 0 0 1 .17.64 2.1 2.1 0 0 1 0 1.22 1.89 1.89 0 0 1-1 .83 11.17 11.17 0 0 1-2.4.54c-.65.09-1.55.3-2.4.38a3.53 3.53 0 0 1-1.44-.09 1.12 1.12 0 0 1-.47-.33c-.42-.4-.65-1-1.09-1.36a11.81 11.81 0 0 0-1.91-1 1.31 1.31 0 0 1-.32-.25 1.81 1.81 0 0 1-.53-1.64Z" fill="#6e6e7d" fill-rule="evenodd"></path><path d="M11.42 18.76a2.37 2.37 0 0 0-.76-.06 1.39 1.39 0 0 1-.7-.05 13.67 13.67 0 0 1-2.14-1.21c-2.49-1.68-2.28-3-3.23-3.67a.77.77 0 0 0-1.07.11.78.78 0 0 0-.2.45 5.22 5.22 0 0 0 0 .58l0 .18a2.22 2.22 0 0 1-1 0 2 2 0 0 0-1.06.11 1.53 1.53 0 0 0-.77 1 1.59 1.59 0 0 0-.09.39 1.53 1.53 0 0 0 0 .37 1.89 1.89 0 0 0 .1.41 1.25 1.25 0 0 0 .22.41 1.53 1.53 0 0 0 .62.47c.6.28 1.5.22 2 .55a23.48 23.48 0 0 1 2.28 1.63 22.44 22.44 0 0 1 2.08 1.84c.3.3.53 1 .9 1.39a1.07 1.07 0 0 0 .67.33.91.91 0 0 0 .85-.35c.21-.24.31-.68.47-.87l1-.54a2.38 2.38 0 0 0 .78-1.31 2 2 0 0 0-.17-1.56 1.3 1.3 0 0 0-.78-.6ZM9.3 22.93l.07 0c.07 0-.05.07-.07 0Zm2.11-2.26a1.5 1.5 0 0 1-.47.76c-.24.18-.58.24-.84.4a1.38 1.38 0 0 0-.3.24 2.12 2.12 0 0 0-.31.53 2.49 2.49 0 0 0-.11.29.27.27 0 0 1-.07-.08c-.05-.07-.1-.16-.15-.24-.17-.29-.31-.61-.47-.84a1.5 1.5 0 0 0-.18-.24 23.53 23.53 0 0 0-2.19-2 22.46 22.46 0 0 0-2.42-1.66 9 9 0 0 0-2-.47.88.88 0 0 1-.45-.23l-.14-.34v-.34c.11-.33.25-.47.45-.51.58-.1 1.3.14 1.9-.19a.65.65 0 0 0 .34-.47 3.13 3.13 0 0 0 0-.63c0-.11-.06-.21 0-.27s.29 0 .44.21c1.79 2.14-.4 1 2.9 3.47a14.77 14.77 0 0 0 2.26 1.35 2.08 2.08 0 0 0 .93.18 1.81 1.81 0 0 1 .62 0 .44.44 0 0 1 .23.22 1.12 1.12 0 0 1 .03.86Z" fill="#1fb50c" fill-rule="evenodd"></path><path d="M23.57 11.6a1.39 1.39 0 0 0-.37-.52 4.81 4.81 0 0 1-.69-.63 9.16 9.16 0 0 0-1.36-1.74 1.69 1.69 0 0 0-1.71-.2 1.33 1.33 0 0 0-.9 1.05c-.12.59.08 1.38 0 2l-1.66 1.9c-.2.22-.41.5-.65.74a1.9 1.9 0 0 1-.43.33c-.27.13-.52 0-.78-.18a2.34 2.34 0 0 0-.94-.28 1.15 1.15 0 0 0-1 .69 1 1 0 0 0-.11.84c.09.35.46.66.57 1a6.35 6.35 0 0 1 .07 1.34 2.24 2.24 0 0 0 .34 1.22 1.57 1.57 0 0 0 1.35.65l.77-.09a1.3 1.3 0 0 0 .78-.61c.23-.37.28-.93.51-1.28A6.91 6.91 0 0 1 18 17c.37-.41.77-.8 1.14-1.2s.54-.64.84-1a2.87 2.87 0 0 1 .54-.46c.67-.4 1.42-.34 2-.67a2.18 2.18 0 0 0 .84-.82 1.46 1.46 0 0 0 .21-1.25Zm-1.08.81a1.21 1.21 0 0 1-.47.44c-.63.32-1.38.24-2.08.63a3.32 3.32 0 0 0-.62.46c-.38.35-.72.8-1 1.14s-.92.93-1.35 1.42a5.31 5.31 0 0 0-.54.71 7.44 7.44 0 0 0-.47 1.21c-.05.09-.09.2-.2.23l-.43.06c-.34 0-.52-.13-.59-.34-.21-.62-.06-1.51-.26-2.08a8.06 8.06 0 0 0-.58-.9c0-.06-.07-.12 0-.19s.16-.27.27-.27a3.48 3.48 0 0 1 1 .34 1.34 1.34 0 0 0 1.09 0 2.9 2.9 0 0 0 .61-.51c.24-.26.45-.56.64-.8 1.71-2.12 1.65-1.36 1.76-2.17 0-.48-.38-.12.09-2a.64.64 0 0 1 .43-.47 1 1 0 0 1 .95.12A8.44 8.44 0 0 1 21.79 11a5.2 5.2 0 0 0 .56.58c.14.12.28.21.32.35s-.04.26-.18.48Z" fill="#1fb50c" fill-rule="evenodd"></path><path d="M7.48 6.23A1.74 1.74 0 0 0 9 6.06a1.7 1.7 0 0 0 .57-.74A1.82 1.82 0 0 0 9.6 4c-.52-1.22-2-.59-2.57.39a1.82 1.82 0 0 0-.23.81 1 1 0 0 0 .68 1.03Zm.31-1.62c0-.08.08-.16.12-.24a.21.21 0 0 0 .11 0l.37-.15a.53.53 0 0 1 .29 0c.09 0 0 .15 0 .25a.86.86 0 0 1-.35.69.67.67 0 0 1-.33.07.58.58 0 0 1-.23 0s-.06 0-.07 0a1 1 0 0 1 .09-.62Z" fill="#6e6e7d" fill-rule="evenodd"></path></g></svg>