<svg xmlns="http://www.w3.org/2000/svg" viewBox="0 0 2500 2500" version="1.1" style="background-color: currentColor">
	<path d="M 1639 154.040 C 1583.487 156.366, 1532.082 160.105, 1426.500 169.498 C 1329.203 178.154, 1307.245 179.839, 1276.500 181.011 C 1212.786 183.440, 1164.710 188.348, 1070.343 202.057 C 1032.298 207.584, 998.259 213.610, 966 220.529 C 936.157 226.931, 887.016 239.440, 882.363 241.820 C 876.926 244.601, 871.434 250.240, 868.249 256.313 C 865.910 260.773, 865.527 262.692, 865.524 270 C 865.521 276.561, 866.005 279.554, 867.647 283.122 C 870.738 289.838, 876.313 295.501, 883.243 298.964 C 892.246 303.462, 897.572 303.157, 924.940 296.572 C 1032.292 270.742, 1131.777 257.994, 1280.500 251.012 C 1314.096 249.435, 1345.403 247.365, 1417 241.989 C 1534.134 233.193, 1562.817 231.526, 1626.304 229.824 C 1705.429 227.703, 1777.647 231.335, 1840 240.572 C 1858.672 243.338, 1901.348 251.298, 1925.994 256.612 C 2032.514 279.578, 2129.010 339.967, 2197.730 426.670 C 2236.753 475.905, 2263.504 533.949, 2274.388 593 C 2279.859 622.684, 2280.506 632.007, 2280.425 680 C 2280.346 726.686, 2279.736 738.978, 2274.027 809 C 2269.425 865.439, 2269.162 870.052, 2265.491 959 C 2257.227 1159.203, 2251.693 1256.578, 2240.526 1398.331 C 2238.612 1422.624, 2236.127 1456.225, 2235.003 1473 C 2224.234 1633.708, 2201.970 1781.290, 2165.554 1933.356 C 2154.846 1978.071, 2140.433 2017.990, 2120.006 2059.500 C 2106.882 2086.171, 2096.645 2104.103, 2081.758 2126.500 C 2062.316 2155.750, 2037.792 2186.583, 2033.186 2187.569 C 2031.709 2187.885, 2018.881 2191.034, 2004.680 2194.566 C 1979.506 2200.829, 1978.006 2201.076, 1944.680 2204.456 C 1778.260 2221.334, 1624.954 2231.151, 1435.500 2237.062 C 1381.497 2238.747, 1059.748 2240.107, 983.500 2238.972 C 808.704 2236.371, 661.324 2228.431, 490.500 2212.413 C 422.143 2206.003, 399.690 2202.548, 353.852 2191.384 C 332.594 2186.207, 330.817 2185.596, 324.906 2181.434 C 321.443 2178.995, 317.870 2177, 316.966 2177 C 313.981 2177, 297.697 2140.190, 289.529 2114.976 C 281.045 2088.788, 276.200 2066.232, 271.062 2029 C 263.616 1975.045, 260.512 1937.561, 255.496 1841 C 252.701 1787.195, 249.064 1741.729, 235.500 1591 C 209.470 1301.751, 203.068 1191.812, 204.316 1055.500 C 204.892 992.455, 205.479 973.908, 208.524 922.500 C 211.138 878.366, 218.594 792.902, 222.570 761.500 C 230.643 697.731, 249.355 630.568, 275.502 571.500 C 285.621 548.641, 299.533 521.858, 307.719 509.477 C 340.978 459.178, 389.690 416.464, 444.395 389.630 C 493.863 365.365, 549.427 352.342, 662.500 338.513 C 722.383 331.189, 725.188 330.971, 762.509 330.728 L 797.500 330.500 803 327.640 C 810.133 323.930, 817.159 316.453, 821.172 308.303 C 826.808 296.854, 825.048 285.382, 816.317 276.650 L 812.667 273 785.083 273.003 C 695.196 273.014, 602.474 282.199, 516.500 299.610 C 474.478 308.120, 445.071 317.579, 411.811 333.284 C 337.863 368.203, 271.186 429.990, 234.060 498 C 190.716 577.401, 160.615 672.671, 150.004 764.045 C 148.825 774.195, 146.336 794.875, 144.472 810 C 132.729 905.299, 127.132 982.727, 125.027 1079 C 123.644 1142.269, 125.363 1267.502, 128.480 1330.500 C 132.067 1402.999, 135.503 1454.782, 145 1579.500 C 156.324 1728.207, 159.629 1780.553, 160.980 1832.656 C 164.476 1967.375, 165.417 1982.077, 174.570 2044.866 C 180.735 2087.157, 184.823 2106.587, 193.960 2137.014 C 203.031 2167.225, 218.452 2205.209, 230.954 2228.136 C 237.987 2241.035, 265.767 2263.432, 287.033 2273.349 C 305.144 2281.794, 315.837 2284.432, 370.500 2293.943 C 504.915 2317.329, 646.202 2333.042, 784.500 2339.984 C 834.843 2342.511, 859.435 2343.148, 941 2344.040 C 988.575 2344.560, 1046.175 2345.417, 1069 2345.946 C 1123.346 2347.205, 1287.346 2347.238, 1349.500 2346.002 C 1558.573 2341.847, 1736.033 2331.750, 1947.500 2311.980 C 1994.873 2307.551, 1998.203 2307.151, 2014.046 2303.990 C 2045.077 2297.800, 2077.207 2285.628, 2101.613 2270.817 C 2106.551 2267.820, 2110.989 2263.901, 2116.128 2258 C 2176.779 2188.348, 2223.032 2109.119, 2252.617 2024.198 C 2266.087 1985.532, 2272.759 1959.916, 2286.008 1896 C 2314.360 1759.220, 2332.957 1613.757, 2339.511 1477.500 C 2339.855 1470.350, 2341.216 1450.100, 2342.535 1432.500 C 2345.826 1388.585, 2347.545 1360.696, 2350.457 1304 C 2351.827 1277.325, 2353.179 1252.350, 2353.462 1248.500 C 2353.745 1244.650, 2354.413 1215.400, 2354.945 1183.500 C 2355.999 1120.375, 2356.599 1101.817, 2361.002 996 C 2362.615 957.225, 2364.404 910.650, 2364.978 892.500 C 2366.532 843.281, 2367.806 817.174, 2370.495 779.500 C 2376.498 695.372, 2376.607 651.751, 2370.926 608.042 C 2361.922 538.774, 2337.531 472.021, 2300.207 414.500 C 2266.656 362.793, 2221.501 314.692, 2170.500 276.332 C 2143.160 255.768, 2117.094 239.710, 2085 223.658 C 2029.320 195.810, 1985.216 181.999, 1913.883 170.074 C 1861.614 161.336, 1839.559 158.620, 1794.650 155.391 C 1769.576 153.588, 1670.336 152.727, 1639 154.040 M 943 513.113 C 901.569 516.109, 851.290 525.886, 830.790 534.933 C 787.396 554.081, 757 599.863, 757 646.070 C 757 666.220, 753.927 683.290, 748.301 694.392 C 744.820 701.261, 736.695 709.528, 730.612 712.391 C 721.855 716.510, 690.304 726.743, 672 731.401 C 642.361 738.941, 613.029 743.643, 581 745.987 C 535.602 749.309, 502.139 763.855, 472.976 792.942 C 454.718 811.154, 442.248 831.267, 435.632 853.177 C 424.007 891.675, 421.764 936.686, 429.587 974.500 C 436.756 1009.158, 459.266 1041.065, 490.109 1060.289 C 507.153 1070.912, 557.386 1085.879, 598 1092.435 C 631.720 1097.878, 640.653 1098.502, 683.500 1098.408 C 788.370 1098.177, 882.652 1089.975, 993.515 1071.439 C 1007.788 1069.052, 1010.168 1068.893, 1015.393 1069.978 C 1019.865 1070.906, 1022.267 1072.127, 1025.515 1075.120 C 1032.417 1081.483, 1033.665 1085.761, 1037.974 1117.826 C 1041.702 1145.567, 1041.846 1147.720, 1042.382 1184 C 1042.687 1204.625, 1043.409 1227.350, 1043.987 1234.500 C 1045.604 1254.515, 1049.895 1283.644, 1052.091 1289.513 C 1056.396 1301.019, 1065.718 1312.018, 1078.500 1320.672 C 1091.538 1329.500, 1132.208 1348, 1138.576 1348 C 1140.459 1348, 1142 1348.242, 1142 1348.537 C 1142 1348.833, 1136.442 1358.170, 1129.649 1369.287 C 1093.407 1428.599, 1054.834 1499.559, 1025.916 1560.117 L 1018.458 1575.734 1011.479 1571.728 C 981.570 1554.560, 819.316 1484.946, 772.500 1469.196 C 757.173 1464.040, 728.613 1456.424, 719.028 1454.936 C 700.997 1452.139, 680.612 1458.384, 664.303 1471.702 C 653.811 1480.269, 639.419 1509.609, 633.008 1535.500 C 631.782 1540.450, 618.689 1590.804, 603.913 1647.398 C 578.535 1744.597, 576.464 1753.210, 566.527 1802.898 C 555.068 1860.201, 553.123 1872.037, 552.844 1886.161 C 552.628 1897.081, 554.646 1902.958, 560.799 1909.335 C 566.346 1915.082, 571.308 1917.260, 580.044 1917.782 C 589.360 1918.339, 595.627 1915.994, 601.898 1909.604 C 605.305 1906.132, 606.844 1903.208, 610.044 1894.122 C 629.092 1840.045, 711 1547.507, 711 1533.552 C 711 1532.150, 711.535 1531.917, 713.582 1532.431 C 720.660 1534.208, 763.498 1555.249, 816.500 1582.983 C 833.550 1591.905, 864.825 1608.238, 886 1619.280 C 907.175 1630.321, 928.325 1641.895, 933 1644.999 C 954.224 1659.089, 985.438 1676.482, 993.379 1678.642 C 1009.176 1682.939, 1030.161 1680.914, 1045.461 1673.615 C 1068.978 1662.397, 1078.103 1651.277, 1109.507 1595.562 C 1115.998 1584.045, 1127.253 1565.595, 1134.517 1554.562 C 1147.024 1535.566, 1155.763 1521.508, 1185.529 1472.500 C 1203.104 1443.565, 1224.656 1410.058, 1232.204 1399.938 C 1241.545 1387.413, 1247.412 1380.119, 1248.197 1380.056 C 1249.072 1379.986, 1280.247 1405.616, 1293.128 1416.995 C 1298.423 1421.673, 1324.806 1448.675, 1351.755 1477 C 1396.622 1524.156, 1407.217 1534.607, 1477.377 1600.905 C 1519.520 1640.728, 1554 1673.628, 1554 1674.017 C 1554 1674.405, 1552.200 1678.564, 1550 1683.259 C 1547.800 1687.954, 1546 1692.291, 1546 1692.897 C 1546 1694.541, 1543.602 1694.353, 1508.646 1689.964 C 1449.561 1682.545, 1423.977 1679.048, 1418.215 1677.604 C 1394.948 1671.772, 1361.160 1671.283, 1335.844 1676.411 C 1321.701 1679.276, 1317.056 1681.915, 1306.768 1692.929 C 1292.068 1708.667, 1285.136 1727.819, 1286.291 1749.500 C 1286.753 1758.185, 1287.704 1762.327, 1293.524 1781 C 1297.209 1792.825, 1305.524 1816.675, 1312.001 1834 C 1326.989 1874.086, 1353.418 1954.153, 1356.029 1967.380 C 1357.128 1972.946, 1359.831 1991.669, 1362.036 2008.986 C 1368.109 2056.680, 1371.446 2070.716, 1381.745 2091.886 C 1385.950 2100.530, 1386.294 2101.812, 1386.090 2108.093 C 1385.715 2119.662, 1391.137 2128.913, 1401.255 2133.970 C 1413.033 2139.855, 1426.111 2137.361, 1434.713 2127.589 C 1442.233 2119.045, 1443.781 2109.542, 1439.626 2097.424 C 1437.948 2092.533, 1437.060 2087.124, 1436.601 2079 C 1435.754 2064, 1431.561 2014.140, 1428.906 1987.500 C 1427.037 1968.734, 1425.598 1960.969, 1415.386 1914.500 C 1406.388 1873.556, 1393.590 1820.037, 1389.381 1805.750 C 1388.320 1802.149, 1404.119 1803.485, 1463.605 1812.022 C 1494.347 1816.435, 1526.475 1821.140, 1535 1822.478 C 1567.876 1827.640, 1592.491 1829.339, 1601 1827.033 C 1617.625 1822.527, 1630.464 1812.840, 1640.430 1797.283 C 1649.567 1783.021, 1652.400 1775.031, 1658.432 1746.500 C 1660.874 1734.950, 1670.776 1691.381, 1680.436 1649.680 L 1698 1573.859 1698 1556.930 C 1698 1543.064, 1698.254 1540, 1699.404 1540 C 1703.489 1540, 1760.765 1560.430, 1837.500 1589.258 C 1887.741 1608.133, 1964.498 1633.700, 1985.375 1638.515 C 2003.982 1642.806, 2014.338 1640.903, 2022.692 1631.655 C 2028.464 1625.267, 2030.491 1619.730, 2030.436 1610.500 C 2030.395 1603.505, 2029.984 1601.711, 2027.165 1596.220 C 2020.925 1584.065, 2013.261 1577.937, 2001.364 1575.589 C 1997.589 1574.844, 1990.512 1573.056, 1985.638 1571.617 C 1980.764 1570.178, 1976.346 1569, 1975.820 1569 C 1975.294 1569, 1961.507 1563.409, 1945.182 1556.575 C 1923.057 1547.314, 1892.840 1532.962, 1826.500 1500.207 C 1738.838 1456.925, 1725.279 1450.691, 1701.500 1442.733 C 1691.019 1439.225, 1688.041 1438.657, 1677.974 1438.243 C 1663.374 1437.643, 1656.347 1439.286, 1647.035 1445.477 C 1633.851 1454.241, 1625.854 1465.154, 1618.001 1485.094 C 1611.164 1502.452, 1606.850 1515.841, 1600.962 1537.975 C 1593.695 1565.290, 1579.370 1613.534, 1578.603 1613.276 C 1576.798 1612.667, 1468.162 1481.362, 1446.242 1453.296 C 1398.731 1392.463, 1358.945 1342.830, 1343.987 1325.734 L 1339.817 1320.968 1351.659 1315.381 C 1370.967 1306.269, 1398.946 1296.221, 1453 1278.986 C 1470.325 1273.462, 1494.850 1265.393, 1507.500 1261.056 C 1520.150 1256.718, 1539.050 1250.421, 1549.500 1247.062 C 1572.272 1239.742, 1601.437 1228.172, 1607.319 1224.124 C 1615.147 1218.739, 1624.550 1207.720, 1628.912 1198.819 C 1636.335 1183.674, 1635.762 1201.608, 1636.385 965.076 C 1636.836 793.602, 1637.197 751.496, 1638.222 750.863 C 1642.116 748.456, 1657.598 744.661, 1672.500 742.460 C 1704.269 737.769, 1753.360 728.944, 1806 718.461 L 1858.500 708.006 1938.715 685.084 C 1990.030 670.421, 2020.786 661.153, 2024.080 659.360 C 2030.004 656.135, 2035.005 650.476, 2038.165 643.420 C 2041.304 636.413, 2041.340 625.205, 2038.245 618.924 C 2034.634 611.595, 2029.489 606.366, 2022.512 602.931 C 2010.147 596.844, 2013.847 596.260, 1922 618.805 L 1840.500 638.810 1793 645.901 C 1766.875 649.801, 1730.875 654.792, 1713 656.993 C 1683.123 660.671, 1678.513 660.994, 1655.881 660.997 C 1622.485 661.001, 1610.594 663.122, 1591.500 672.479 C 1580.426 677.906, 1569.792 685.870, 1564.769 692.500 C 1559.899 698.928, 1552.770 712.723, 1550.112 720.863 C 1545.270 735.691, 1544.841 740.392, 1544.941 777.500 C 1545.026 809.125, 1544.740 815.682, 1541.978 845.500 C 1537.066 898.536, 1534.039 985.145, 1534.017 1073.250 L 1534 1144 1523.250 1144.020 C 1510.108 1144.044, 1500.231 1145.390, 1494.683 1147.913 C 1487.614 1151.128, 1459.277 1160.295, 1414.395 1173.887 C 1366.801 1188.299, 1334.872 1198.959, 1319 1205.737 C 1281.211 1221.874, 1240.337 1246.511, 1219.779 1265.545 C 1216.538 1268.545, 1213.463 1271, 1212.946 1271 C 1212.430 1271, 1203.793 1268.496, 1193.753 1265.435 C 1183.714 1262.375, 1166.077 1257.640, 1154.560 1254.913 C 1143.044 1252.185, 1133.430 1249.764, 1133.198 1249.531 C 1132.965 1249.298, 1127.906 1224.671, 1121.955 1194.804 C 1112.793 1148.817, 1109.731 1135.522, 1101.966 1108 C 1092.581 1074.738, 1088.792 1064.626, 1082.367 1055.682 C 1078.976 1050.962, 1078.841 1050.511, 1080.524 1049.544 C 1081.524 1048.970, 1087.102 1045.400, 1092.921 1041.612 C 1102.466 1035.397, 1107.281 1030.901, 1142.182 995.612 C 1185.025 952.293, 1185.537 951.653, 1200.646 922.485 C 1223.391 878.578, 1235.639 835.931, 1240.562 783.500 C 1244.876 737.568, 1238.315 698.410, 1219.953 660.500 C 1209.539 638.997, 1188.731 603.145, 1171.493 577 C 1153.638 549.920, 1136.181 536.296, 1109.284 528.448 C 1087.297 522.033, 1044.877 515.167, 1014 513.025 C 997.205 511.861, 959.683 511.907, 943 513.113 M 977 614.024 C 959.321 615.372, 932.773 618.893, 919.760 621.614 C 898.493 626.062, 873.394 635.816, 867.602 641.883 L 864.704 644.918 864.517 670.209 C 864.343 693.589, 864.135 696.293, 861.767 706 C 856.662 726.918, 849.488 743.592, 838.546 759.972 C 821.278 785.822, 800.667 803.186, 772.509 815.605 C 727.777 835.334, 679.991 847.200, 630 850.993 C 604.056 852.961, 584.096 856.554, 561.253 863.369 C 542.721 868.897, 537.119 874.230, 530.960 892.207 C 524.554 910.907, 522.892 920.782, 522.325 943.500 C 521.879 961.378, 522.032 964.148, 523.763 969.604 C 526.144 977.108, 531.891 985.953, 537.030 990.024 C 547.965 998.684, 591.434 1013.906, 625.113 1020.868 C 655.869 1027.226, 668.973 1028.420, 732 1030.605 C 814.315 1033.459, 886.747 1031.364, 961.500 1023.967 C 1009.586 1019.209, 1017.250 1017.208, 1034 1005.037 C 1037.575 1002.439, 1042.750 998.824, 1045.500 997.003 C 1053.750 991.540, 1066.020 979.067, 1093.682 948.024 C 1118.636 920.022, 1120.246 917.973, 1125.898 907.024 C 1139.488 880.700, 1148.989 851.724, 1153.448 823 C 1154.345 817.225, 1155.769 808.225, 1156.613 803 C 1159.927 782.493, 1160.193 779.020, 1159.682 763 C 1159.107 744.974, 1157.766 737.232, 1152.441 721.194 C 1144.411 697.016, 1124.040 663.716, 1099.668 634.932 C 1093.414 627.544, 1087.432 620.736, 1086.377 619.802 C 1084.965 618.553, 1079.702 617.542, 1066.479 615.980 C 1046.086 613.571, 997.008 612.498, 977 614.024" stroke="none" fill="#d8d613" fill-rule="evenodd"></path>
</svg>