<?xml version="1.0" standalone="no"?>
<!DOCTYPE svg PUBLIC "-//W3C//DTD SVG 20010904//EN"
 "http://www.w3.org/TR/2001/REC-SVG-20010904/DTD/svg10.dtd">
<svg version="1.0" xmlns="http://www.w3.org/2000/svg"
 width="1280.000000pt" height="1280.000000pt" viewBox="0 0 1280.000000 1280.000000"
 preserveAspectRatio="xMidYMid meet">
<metadata>
Created by potrace 1.15, written by Peter Selinger 2001-2017
</metadata>
<g transform="translate(0.000000,1280.000000) scale(0.100000,-0.100000)"
fill="#0dbc79" stroke="none">
<path d="M641 12781 c8 -11 122 -142 255 -293 363 -412 565 -649 575 -672 4
-12 75 -325 156 -696 146 -670 147 -676 147 -800 0 -306 -108 -563 -366 -872
-47 -58 -203 -224 -346 -371 -143 -147 -297 -310 -342 -364 -359 -430 -475
-843 -374 -1343 42 -208 89 -302 173 -347 53 -28 159 -31 316 -8 175 26 278
17 382 -32 137 -64 260 -234 315 -434 20 -74 23 -106 23 -269 -1 -305 -44
-489 -285 -1210 -228 -684 -267 -847 -257 -1088 3 -96 10 -142 27 -190 63
-179 233 -299 435 -310 127 -6 185 11 415 123 122 60 216 99 251 105 105 19
199 -18 284 -112 88 -99 121 -196 112 -337 -11 -168 -56 -286 -266 -705 -173
-342 -214 -442 -238 -584 -27 -160 5 -271 107 -372 135 -134 330 -198 475
-155 79 23 150 60 286 148 139 91 231 138 329 169 97 30 315 34 365 6 80 -43
168 -165 360 -498 373 -644 568 -864 845 -955 217 -71 521 60 634 274 53 101
70 182 70 341 0 149 -7 200 -66 500 -30 152 -41 232 -42 310 -1 101 0 108 33
170 77 150 183 279 286 350 78 53 203 107 330 140 231 60 287 83 370 145 28
22 45 30 42 21 -4 -9 -17 -67 -29 -129 -20 -96 -23 -141 -22 -322 0 -195 2
-217 27 -309 50 -185 139 -331 257 -423 60 -46 60 -47 60 -98 0 -28 3 -55 6
-58 4 -4 28 9 55 29 l48 35 63 -23 c55 -20 82 -23 208 -23 138 1 150 2 240 33
300 104 583 351 797 695 72 117 182 345 223 462 26 76 36 94 66 113 23 15 44
42 61 78 27 60 26 92 -9 155 -11 20 -18 44 -17 54 3 13 14 2 41 -41 78 -127
186 -220 320 -276 59 -25 79 -29 122 -23 69 8 101 8 242 0 152 -9 239 7 374
72 79 38 107 59 180 132 60 60 97 108 124 159 31 60 43 74 67 79 39 7 43 17
23 48 -15 23 -15 32 -3 88 22 100 18 268 -10 357 -57 186 -173 338 -332 436
-39 25 -65 49 -76 71 -29 63 -130 111 -280 133 -260 40 -534 -96 -693 -343
-30 -47 -57 -86 -60 -86 -16 -2 -73 44 -98 78 -29 40 -30 42 -35 213 -5 180
-7 192 -67 360 -51 146 -57 246 -35 590 15 240 16 309 7 382 -7 49 -11 91 -9
92 1 2 128 -108 282 -243 889 -781 1153 -983 1652 -1265 124 -70 141 -83 133
-99 -6 -10 -10 -27 -10 -38 0 -12 -4 -21 -9 -21 -5 0 -34 -23 -65 -51 -153
-140 -144 -328 21 -430 49 -31 194 -51 260 -36 26 5 60 10 76 10 16 0 27 5 27
13 0 8 5 14 10 14 6 0 31 19 57 42 67 62 116 173 111 249 l-4 57 45 -51 c70
-77 147 -98 221 -58 81 43 128 159 114 282 -12 110 -121 208 -230 209 -104 0
-179 -72 -191 -185 -3 -25 -8 -45 -11 -45 -3 0 -70 31 -149 70 -149 72 -214
108 -346 193 l-78 50 51 29 c45 25 95 78 141 148 l16 25 89 -42 c188 -88 332
-118 529 -110 299 13 547 145 704 376 88 129 116 219 91 286 -9 23 -4 36 34
98 106 169 188 380 227 579 31 154 31 371 2 510 -23 103 -70 224 -125 315 -31
52 -140 173 -200 221 -24 19 -28 29 -28 77 0 30 -2 55 -5 55 -2 0 -24 -10 -48
-21 l-44 -22 -65 26 c-109 44 -178 58 -293 61 l-110 2 -40 78 c-35 69 -40 86
-39 145 1 71 20 121 70 180 76 91 146 83 424 -49 237 -112 313 -133 399 -110
92 25 180 151 188 270 6 77 -14 103 -127 170 -51 30 -104 70 -119 89 -24 32
-26 42 -26 130 0 89 3 102 33 163 54 110 132 153 340 189 156 26 189 37 219
73 22 26 25 36 19 80 -7 62 -60 175 -114 242 -82 103 -171 118 -344 58 -57
-20 -134 -45 -172 -55 -124 -34 -267 -20 -318 31 -32 32 -34 58 -17 155 15 78
6 127 -32 169 -64 74 -254 131 -349 106 -89 -24 -129 -98 -156 -290 -39 -281
-62 -357 -131 -431 -57 -61 -127 -91 -213 -93 -136 -2 -179 65 -210 329 -16
132 -43 215 -84 257 -74 76 -237 77 -325 1 -80 -68 -109 -159 -136 -433 -33
-324 -90 -451 -237 -531 -57 -31 -71 -34 -145 -34 -74 0 -85 3 -125 30 -23 17
-78 75 -122 129 -120 150 -181 166 -294 77 -79 -62 -138 -148 -173 -247 -43
-125 -56 -218 -69 -496 -5 -117 -15 -253 -21 -303 -20 -162 -75 -298 -147
-367 -23 -23 -154 -96 -353 -197 l-316 -161 -104 96 c-587 545 -1284 1088
-2269 1768 -157 108 -296 205 -309 214 -24 17 -24 18 -6 52 30 59 64 168 76
251 27 174 -32 340 -167 474 l-73 73 57 6 c80 10 160 33 210 63 53 30 93 91
127 193 45 136 95 194 206 243 177 79 334 52 521 -88 53 -40 171 -153 304
-293 120 -125 266 -274 324 -331 332 -327 644 -521 993 -616 122 -33 198 -36
235 -8 44 33 51 70 50 283 0 174 2 202 21 263 43 133 157 227 319 263 195 44
286 -28 452 -356 128 -251 237 -380 388 -458 117 -61 184 -76 347 -76 127 -1
144 1 188 22 34 17 55 37 75 70 27 47 27 48 33 297 6 232 8 256 32 328 33 102
82 182 123 202 43 20 192 20 416 -1 453 -42 706 10 873 180 98 100 150 210
180 383 47 271 -30 460 -232 566 -100 53 -222 84 -439 111 -206 27 -240 36
-267 69 -137 165 -171 329 -112 542 15 55 36 129 46 165 38 138 22 209 -65
295 -129 129 -433 230 -626 210 -140 -15 -243 -60 -435 -190 -174 -119 -231
-145 -320 -145 -54 0 -83 6 -124 25 -117 55 -238 160 -281 245 -49 95 -36 179
55 360 94 187 105 272 50 380 -50 99 -183 210 -299 251 -85 29 -203 28 -297
-5 -144 -50 -288 -153 -528 -378 -78 -73 -199 -187 -269 -252 -244 -229 -414
-350 -582 -412 -156 -59 -287 -66 -430 -22 -147 45 -251 121 -264 192 -9 49
21 114 109 231 147 196 163 288 78 429 -95 156 -229 254 -361 264 -224 16
-439 -132 -907 -622 -447 -468 -609 -620 -781 -737 -94 -63 -237 -132 -272
-132 -15 0 -310 60 -657 132 l-630 131 -28 33 c-15 17 -111 147 -213 287 -209
286 -513 684 -798 1048 l-191 242 -418 0 c-411 0 -419 0 -406 -19z m1461
-1708 c341 -415 647 -804 950 -1208 198 -265 234 -315 225 -315 -3 0 -57 18
-120 40 -371 128 -626 263 -777 413 -128 126 -124 117 -270 647 -72 261 -140
505 -150 543 -10 37 -17 67 -15 67 2 0 73 -84 157 -187z m1123 -238 c352 -78
405 -100 532 -219 164 -153 269 -329 492 -825 143 -316 224 -469 308 -580 18
-24 32 -45 31 -47 -2 -1 -61 18 -133 43 -71 24 -231 74 -355 109 -124 36 -228
68 -231 72 -3 4 -43 70 -89 147 -191 321 -481 773 -738 1148 -169 246 -159
230 -136 224 11 -3 154 -35 319 -72z m2025 -3146 c1011 -686 1692 -1207 2275
-1740 257 -235 333 -322 412 -475 73 -139 94 -244 138 -684 14 -140 37 -318
51 -395 15 -77 29 -152 31 -166 3 -16 -7 -52 -26 -95 -41 -90 -122 -224 -136
-224 -6 0 -37 9 -69 20 -143 51 -225 64 -381 64 -135 0 -158 -3 -231 -27 -210
-69 -382 -283 -320 -397 13 -23 11 -28 -46 -90 -105 -114 -191 -235 -294 -415
l-28 -50 -8 52 c-10 69 -50 172 -94 245 -66 108 -154 209 -418 478 -273 278
-372 391 -456 516 -51 74 -110 188 -110 211 0 6 31 20 69 32 286 87 519 290
612 532 20 54 24 58 67 69 26 7 51 16 55 20 5 5 -7 26 -27 48 -30 33 -47 72
-32 72 2 0 41 7 87 15 182 33 291 94 342 189 19 35 22 56 22 157 0 114 0 116
-39 195 -30 61 -58 98 -125 165 -149 148 -351 263 -821 464 -468 200 -690 325
-821 462 -128 132 -161 242 -141 470 13 153 31 231 70 312 30 62 109 154 126
148 6 -3 126 -82 266 -178z m4977 -1163 c65 -17 143 -53 255 -117 48 -28 88
-51 88 -52 0 -1 -46 -49 -103 -107 -111 -115 -214 -253 -274 -368 -34 -64 -42
-73 -76 -83 -119 -32 -250 -281 -279 -528 -38 -325 126 -697 405 -921 l56 -44
-17 -29 c-9 -16 -33 -42 -52 -58 -35 -29 -141 -69 -185 -69 -48 0 -594 434
-1050 834 -339 298 -965 878 -971 901 -2 6 112 70 254 144 l257 134 95 -1
c122 -1 228 -29 336 -86 92 -49 141 -85 313 -229 147 -122 204 -152 291 -152
75 1 125 23 204 89 79 65 87 93 85 303 -1 197 5 232 53 312 73 120 179 163
315 127z m-1968 -2644 c6 -56 11 -110 11 -118 0 -10 -18 -3 -60 26 l-59 40 14
46 c17 56 64 130 75 118 4 -5 13 -55 19 -112z"/>
</g>
</svg>
