<svg id="Layer_1" data-name="Layer 1" xmlns="http://www.w3.org/2000/svg" viewBox="0 0 389.14 207.47"><title>W3C logo - Brandlogos.net</title><path d="M292.58,281.43,329.52,407l36.93-125.57H466.58v12.48l-37.7,64.95q19.86,6.38,30.05,23.18t10.19,39.47q0,28-14.9,47.12t-38.59,19.1a46.28,46.28,0,0,1-31.07-11.33Q371.32,465.06,365,445.7L385.84,437q4.59,11.72,12.1,18.46a25.61,25.61,0,0,0,17.7,6.75q10.7,0,18.08-12t7.39-28.78q0-18.59-7.89-28.78-9.18-12-28.79-12H394.24V368.53l35.66-61.64h-43l-2.45,4.17L332.06,487.73h-2.55L291.31,359.88,253.1,487.73h-2.55L189.43,281.43h26.74L253.11,407l25-84.56-12.22-41Z" transform="translate(-189.43 -280.27)" style="fill:#005a9c"/><path d="M572.77,280.27l4.34,26.34-15.33,29.34s-5.89-12.45-15.67-19.34c-8.24-5.8-13.61-7.07-22-5.34-10.78,2.23-23,15.12-28.34,31-6.38,19-6.45,28.22-6.67,36.67-.36,13.55,1.78,21.56,1.78,21.56s-9.31-17.23-9.22-42.45c.06-18,2.89-34.34,11.22-50.45,7.33-14.17,18.23-22.67,27.9-23.67,10-1,17.9,3.78,24,9,6.41,5.48,12.89,17.44,12.89,17.44Z" transform="translate(-189.43 -280.27)"/><path d="M574.66,429.29s-6.78,12.11-11,16.78-11.78,12.89-21.11,17-14.22,4.89-23.45,4-17.78-6.22-20.78-8.45-10.67-8.78-15-14.89-11.11-18.33-11.11-18.33,3.78,12.26,6.14,17.45A113.31,113.31,0,0,0,489.83,463c5.53,7.43,16.28,20.23,32.62,23.11a41.47,41.47,0,0,0,30.33-6.23,83.74,83.74,0,0,0,12.34-10.64,94,94,0,0,0,9.56-12.58c1.48-2.31,3.89-7,3.89-7Z" transform="translate(-189.43 -280.27)"/></svg>